<svg width="300" height="100" viewBox="0 0 300 100" fill="none"
    xmlns="http://www.w3.org/2000/svg">
    <path d="M86.6628 35.3333C86.6628 24.8889 75.7739 20 62.6627 20C48.8849 20 35.9959 26.2222 31.3293 35.7778C29.9959 38.2222 29.3293 41.1111 29.3293 44C29.3293 46.4444 29.9959 48.8889 31.3293 50.8889C33.3293 53.7778 36.8848 55.7778 42.2182 55.7778C48.6627 55.7778 53.7738 52.2222 53.7738 46C53.7738 46 53.7738 44.2222 51.7738 44.2222C50.2182 44.2222 49.7738 45.3333 49.7738 46C49.996 50.8889 47.1071 54.6667 41.996 54.6667C36.2182 54.6667 33.7737 49.7778 33.7737 44.6667C33.7737 34 41.7737 26.8889 50.2182 23.7778C54.2182 22.2222 58.2183 21.5556 62.4405 21.5556C71.9961 21.5556 79.7739 25.1111 79.7739 34.8889C79.7739 43.1111 72.885 50 64.6627 50.6667L65.1072 49.5556C66.8849 43.5556 68.885 37.1111 72.2183 32.2222C72.4405 32 72.6628 31.5556 73.1072 30.8889L72.6628 30.2222C71.9961 30.6667 71.3294 31.1111 70.6627 31.5556C54.8849 43.7778 54.4405 78.2222 33.5515 78.2222C32.8848 78.2222 32.2182 78.2222 31.3293 78C26.8848 77.3333 24.6626 74.4444 24.6626 70.2222C24.6626 69.3333 24.8848 68.2222 24.8848 67.7778C24.8848 66.6667 23.9959 65.5556 22.8848 65.5556H22.6626C20.8848 65.5556 19.9959 67.1111 19.9959 69.1111C19.7737 75.1111 24.4403 78.6667 31.3293 79.3333C31.9959 79.3333 32.8848 79.3333 33.7737 79.3333C49.996 79.3333 59.996 67.1111 64.4405 52C66.6627 51.7778 68.6627 51.3333 70.885 50.6667C78.2183 49.3333 86.6628 44.2222 86.6628 35.3333Z" fill="#0064FF"/>
    <path d="M242.222 38.8889H236.444L235.111 42L232.889 47.1111H230.222L229.333 48.8889H232L228.888 56C226.444 61.1111 222.666 66.2222 220.666 66.2222C220.222 66.2222 220 66 220 65.5556C220 65.1111 220.222 64.6667 220.666 63.3333C221.333 61.7778 222.444 59.5556 223.333 57.7778C224.444 55.3333 226.444 51.5556 226.444 49.7778C226.444 48 225.333 46.4444 222.888 46.4444C220.222 46.4444 217.777 48 215.555 50.2222L216.888 46.8889H211.555L207.111 56.8889C205.333 60.4444 201.777 66.2222 199.555 66.2222C199.111 66.2222 198.888 66 198.888 65.5556C198.888 65.1111 199.111 64.6667 199.333 64.2222C199.555 63.7778 202.222 57.5556 202.222 57.5556L207.111 46.6667H201.333L196.666 57.3333C195.333 60.6667 191.555 66.2222 189.333 66.2222C188.888 66.2222 188.666 66 188.444 65.5556V65.3333C188.444 64.6667 188.888 63.7778 189.111 62.8889L191.111 57.7778L196.222 46.8889H190.444L189.333 49.3333C188.444 51.1111 187.111 52.8889 184.666 52.8889C183.555 52.8889 183.111 52.4444 182.888 52C182.444 48.2222 180.222 46.4444 176.666 46.4444C171.777 46.4444 168.444 49.3333 166.222 52.6667C164.666 55.1111 163.555 57.5556 162.666 60.2222C160.666 63.5556 158.444 66.2222 156.666 66.2222C156.222 66.2222 155.999 66 155.999 65.3333C155.999 64.6667 156.666 63.5556 156.666 62.8889L160.444 54.8889C161.555 52.4444 162.222 50.8889 162.222 49.1111C162.222 47.3333 161.11 46.2222 159.11 46.2222C156.444 46.2222 153.333 47.7778 151.11 50.4444C151.11 50 151.11 49.5556 151.11 49.1111C151.11 47.1111 150.222 46.2222 148.222 46.2222C145.777 46.2222 143.11 47.7778 140.888 50.4444L142.444 46.6667H137.11L132.666 56.6667C130.666 61.3333 127.11 66 125.333 66C124.888 66 124.666 65.7778 124.666 65.1111C124.666 64.2222 125.777 62 125.999 61.1111L131.999 47.7778C132.444 46.6667 129.555 46.2222 125.999 46.2222C122.221 46.2222 118.444 48 115.777 50.4444C113.777 52 112.444 52.8889 111.555 52.8889C111.11 52.8889 111.11 52.6667 111.11 52.4444C111.11 51.5556 113.11 49.3333 113.11 47.5556C113.11 46.6667 112.666 46.2222 111.555 46.2222C109.555 46.2222 106.888 48.2222 105.11 50.2222L106.666 46.4444H101.555L97.1102 56.4444C95.1102 61.1111 91.5546 66 89.5546 66C89.1102 66 88.888 65.7778 88.888 65.1111C88.888 64.2222 89.7769 62 90.4435 60.8889L96.4436 47.5556C96.888 46.4444 93.9991 46 90.4435 46C85.1102 46 79.9991 49.5556 77.3324 53.3333C74.2213 57.3333 72.2212 61.5556 72.2212 64.8889C72.2212 67.5556 73.5546 69.3333 76.4435 69.3333C79.5546 69.3333 82.2213 66.8889 83.7768 64.8889C83.7768 65.3333 83.5546 65.5556 83.5546 66C83.5546 68 84.2213 69.3333 86.6657 69.3333C88.6657 69.3333 91.5546 67.5556 93.5547 64.8889L91.7769 68.8889H97.3324L102.888 56.4444C104.666 52.4444 106.666 50.2222 107.332 50.2222C107.555 50.2222 107.555 50.2222 107.555 50.4444C107.555 50.8889 106.666 52 106.666 53.1111C106.666 54.2222 107.332 54.8889 108.666 54.8889C109.777 54.8889 111.11 54.2222 112.444 53.5556C109.555 57.3333 107.777 61.3333 107.777 64.6667C107.777 67.3333 109.11 69.1111 111.999 69.1111C115.11 69.1111 117.777 66.2222 119.333 64.4444C119.333 64.8889 119.333 65.3333 119.333 65.7778C119.333 67.5556 120.444 69.1111 122.444 69.1111C124.888 69.1111 126.666 67.5556 129.11 64.6667L127.333 68.6667H133.11L138.444 56.6667C140.666 51.5556 143.777 48.6667 145.333 48.6667C145.777 48.6667 145.999 48.8889 145.999 49.3333V49.5556C145.999 50.2222 145.777 50.6667 145.555 51.3333L137.999 68.6667H143.777L149.11 56.4444C151.333 51.3333 153.999 48.6667 155.777 48.6667C156.444 48.6667 156.666 48.8889 156.666 49.5556C156.666 50.2222 156.444 50.8889 156.222 51.5556L151.11 63.5556C150.666 64.6667 150.444 65.7778 150.222 66.8889C150.222 68.6667 151.11 70 153.777 70C157.11 70 159.555 67.5556 162.444 63.7778V64.4444C162.666 67.5556 164.444 70 168.888 70C174.222 70 178.444 66.4444 180.888 60.6667C181.777 58.6667 182.444 56.4444 182.666 54.2222C183.333 54.4444 183.999 54.6667 184.444 54.6667C185.333 54.6667 186.222 54.4444 186.888 54L185.999 56C184.888 58.2222 183.777 60.6667 182.888 62.6667C182.222 63.7778 181.999 65.1111 181.777 66.4444C181.777 68.4444 182.888 70 185.333 70C187.777 70 190.888 67.7778 193.111 64.6667C193.333 65.3333 193.333 66 193.333 66.6667C193.333 68.4444 193.777 70 196.222 70C198.888 70 201.111 68 203.333 65.5556L201.555 69.5556H207.333L212 59.1111C214.666 53.1111 217.333 49.5556 219.777 49.5556C220.222 49.5556 220.444 49.7778 220.666 50.2222V50.4444C220.666 51.5556 219.333 54.2222 218 56.8889C216.888 59.3333 216 61.3333 215.333 62.6667C214.666 64 214.444 65.3333 214.222 66.6667C214.222 68.4444 215.333 69.7778 217.555 69.7778C220.888 69.7778 224.222 66.4444 226.222 64C225.777 65.1111 225.555 66.4444 225.555 67.5556C225.555 70.8889 227.555 72.6667 230.444 72.6667C232.222 72.6667 234.222 72 235.555 70.8889C237.777 69.3333 239.555 67.1111 241.111 64.8889L240 64C238.666 66 237.111 67.7778 235.555 68.8889C234.666 69.5556 233.777 70 232.666 70C231.555 70 230.666 69.3333 230.666 67.7778C230.666 66.2222 231.333 64.2222 232.444 61.3333C232.444 61.3333 234 57.7778 235.555 54.4444C236.889 51.5556 238 48.8889 238.222 48.2222H242L242.666 46.4444H238.889L242.222 38.8889ZM78.8879 66.4444C77.999 66.4444 77.5546 66.2222 77.5546 65.1111C77.5546 62.2222 79.9991 57.3333 82.888 53.3333C84.888 50.6667 87.5546 48.4444 90.4435 48.4444L86.888 56.6667C83.9991 62.6667 81.1102 66.4444 78.8879 66.4444ZM114.666 66.4444C113.777 66.4444 113.333 66.2222 113.333 65.1111C113.333 62.2222 115.777 57.3333 118.666 53.3333C120.666 50.6667 123.333 48.4444 126.221 48.4444L122.666 56.6667C119.777 62.8889 116.888 66.4444 114.666 66.4444ZM178.222 50.6667C177.999 53.7778 175.333 61.3333 172.222 65.7778C170.888 67.5556 169.777 68.2222 168.888 68.2222C167.555 68.2222 167.11 67.1111 167.333 65.5556C167.555 62.6667 169.999 56.2222 173.111 51.5556C174.666 49.5556 175.555 48.6667 176.666 48.6667C177.999 48.4444 178.222 49.3333 178.222 50.6667Z" fill="#0064FF"/>
    <path d="M267.554 46.8888L272.887 34.6666H266.665L261.331 46.8888H247.998L245.776 51.9999H259.109L253.776 64.2222H259.998L265.331 51.9999H278.665L280.887 46.8888H267.554Z" fill="#0064FF"/>
</svg>
    